:SAMPLES-PER-SECOND 30
:FULLY-SPECIFIED
:DEGREES
220
root  -31.8277 39.2162 1.4694 -137.995 -80.9838 135.393
RightUpLeg  17.2473 -18.5718 -11.799
RightLeg  12.901 -12.8197 -0.732409
RightFoot  -17.7846 0.685676 14.2701
RightToes  -1.74624e-010 0 -3.6325e-017
Spine  1.43077 2.37768 2.68762
Spine1  9.76898 5.42029 -10.4613
HEad  -21.7224 -14.5525 -3.79947
LeftShoulder1  -0.371256 4.51668 -30.5317
LeftArm  -3.80388 29.9265 -22.869
LeftForeArm  24.3363 -8.70777 -6.33796
LeftHand  -0.0376853 10.0399 0.407745
RightShoulder  -0.791473 -5.74077 28.745
RightArm  22.8777 12.8747 51.4987
RightForeArm  9.09169 28.6248 5.66211
RightHand  -0.259131 7.4303 -2.70848
LeftUpLeg  -15.5892 7.74644 -8.85988
LeftLeg  13.1609 10.3713 1.00694
LeftFoot  2.00313 -0.783285 6.58709
LeftToes  2.27646e-009 -8.13696e-011 -1.44715e-011
221
root  -32.6286 39.1533 1.60004 -132.465 -81.4963 128.93
RightUpLeg  18.0781 -22.6755 -14.6012
RightLeg  17.105 -7.9564 -2.43761
RightFoot  -17.137 0.824873 18.5316
RightToes  -1.74624e-010 0 -3.6325e-017
Spine  1.37159 2.37533 2.31811
Spine1  10.878 5.76143 -11.7926
HEad  -20.8458 -15.4117 -3.66097
LeftShoulder1  -0.396644 4.58295 -30.6034
LeftArm  -5.11024 29.7654 -23.3108
LeftForeArm  24.5665 -7.25435 -5.74429
LeftHand  -0.0340891 9.23179 0.485202
RightShoulder  -0.856513 -5.89606 29.2096
RightArm  25.61 11.1276 52.475
RightForeArm  6.15022 23.213 4.96138
RightHand  -0.285901 7.18732 -2.98855
LeftUpLeg  -14.4208 9.02485 -9.8097
LeftLeg  15.2723 8.29741 1.29492
LeftFoot  0.12616 -0.702813 6.97464
LeftToes  2.27646e-009 -8.13696e-011 -1.44715e-011
222
root  -33.3796 39.1174 1.72182 -130.339 -81.1578 126.294
RightUpLeg  15.9306 -20.4153 -15.2147
RightLeg  23.9675 -7.97214 -4.15897
RightFoot  -15.2605 0.67032 22.9198
RightToes  -1.74624e-010 0 -3.6325e-017
Spine  1.47088 2.72837 1.09154
Spine1  11.044 6.09414 -12.3998
HEad  -19.4741 -16.1537 -4.06164
LeftShoulder1  -0.440927 4.69419 -30.9022
LeftArm  -5.45317 29.7458 -23.9178
LeftForeArm  25.0269 -7.10146 -5.59323
LeftHand  -0.0713002 9.79262 -0.45492
RightShoulder  -0.871572 -5.93175 29.2639
RightArm  25.3499 9.36378 53.4453
RightForeArm  7.5475 16.6272 6.24894
RightHand  -0.1989 6.71375 -2.27706
LeftUpLeg  -13.1209 8.66827 -10.1527
LeftLeg  16.3975 8.9842 1.15505
LeftFoot  -1.63066 -0.57472 6.87451
LeftToes  2.27646e-009 -8.13696e-011 -1.44715e-011
223
root  -34.1322 39.1452 1.85055 -127.965 -80.8997 123.325
RightUpLeg  12.3699 -16.5641 -15.4429
RightLeg  32.8263 -7.58862 -5.47083
RightFoot  -10.4307 -0.173409 22.2047
RightToes  -1.74624e-010 0 -3.6325e-017
Spine  1.93273 2.67654 -0.0204922
Spine1  10.7712 6.06836 -13.1953
HEad  -18.4926 -16.2336 -4.10061
LeftShoulder1  -0.446292 4.71268 -30.7552
LeftArm  -5.35242 29.719 -24.9625
LeftForeArm  25.5523 -7.93944 -5.84689
LeftHand  -0.095156 9.70285 -1.08243
RightShoulder  -1.02277 -6.26516 30.498
RightArm  21.5081 8.32584 53.4879
RightForeArm  15.2205 10.2668 8.75238
RightHand  -0.144912 4.67935 -1.87914
LeftUpLeg  -11.1567 8.25356 -10.3606
LeftLeg  16.4748 9.49124 0.595725
LeftFoot  -3.19387 -0.458098 6.69166
LeftToes  2.27646e-009 -8.13696e-011 -1.44715e-011
224
root  -34.8374 39.2388 1.97226 -123.389 -81.3724 118.597
RightUpLeg  7.34051 -13.322 -14.9671
RightLeg  42.3263 -5.44811 -5.54993
RightFoot  -1.93893 -1.13819 13.5742
RightToes  -1.74624e-010 0 -3.6325e-017
Spine  1.99556 2.13912 -1.26446
Spine1  10.7581 5.33158 -12.6596
HEad  -18.8616 -15.5177 -4.60354
LeftShoulder1  -0.518146 4.88191 -31.4627
LeftArm  -5.60407 28.2312 -26.1573
LeftForeArm  26.34 -8.7211 -5.98788
LeftHand  -0.0752731 9.68354 -0.581752
RightShoulder  -0.985611 -6.18132 30.2432
RightArm  18.7219 6.28982 54.1965
RightForeArm  24.5259 6.53499 9.23962
RightHand  0.0266678 2.64496 0.128253
LeftUpLeg  -9.43868 6.99179 -10.3951
LeftLeg  15.8947 9.82755 0.279327
LeftFoot  -4.1866 -0.364863 6.23831
LeftToes  2.27646e-009 -8.13696e-011 -1.44715e-011
